<svg id="Capa_5" data-name="Capa 5" xmlns="http://www.w3.org/2000/svg" xmlns:xlink="http://www.w3.org/1999/xlink" viewBox="0 0 360.67 362.97"><defs><style>.cls-1{fill:url(#Degradado_sin_nombre_3);}.cls-2{fill:#fff;}.cls-3{fill:url(#Degradado_sin_nombre_3-2);}.cls-4{fill:url(#Degradado_sin_nombre_3-3);}.cls-5{fill:url(#Degradado_sin_nombre_15);}.cls-6{fill:url(#Degradado_sin_nombre_15-2);}.cls-7{fill:url(#Degradado_sin_nombre_15-3);}.cls-8{fill:url(#Degradado_sin_nombre_15-4);}.cls-9{fill:url(#Degradado_sin_nombre_15-5);}.cls-10{fill:url(#Degradado_sin_nombre_15-6);}.cls-11{fill:url(#Degradado_sin_nombre_15-7);}.cls-12{fill:url(#Degradado_sin_nombre_15-8);}.cls-13{fill:url(#Degradado_sin_nombre_15-9);}.cls-14{fill:url(#Degradado_sin_nombre_15-10);}.cls-15{fill:url(#Degradado_sin_nombre_15-11);}.cls-16{fill:url(#Degradado_sin_nombre_15-12);}</style><linearGradient id="Degradado_sin_nombre_3" y1="448.15" x2="360.67" y2="448.15" gradientTransform="matrix(1, 0, 0, -1, 0, 629.64)" gradientUnits="userSpaceOnUse"><stop offset="0" stop-color="#b47a1a" stop-opacity="0.4"/><stop offset="0.03" stop-color="#bb831f" stop-opacity="0.5"/><stop offset="0.08" stop-color="#cc9d2e" stop-opacity="0.66"/><stop offset="0.14" stop-color="#e9c645" stop-opacity="0.86"/><stop offset="0.18" stop-color="#ffe55a"/><stop offset="0.21" stop-color="#f8db54" stop-opacity="0.98"/><stop offset="0.27" stop-color="#e5bf43" stop-opacity="0.95"/><stop offset="0.33" stop-color="#c49128" stop-opacity="0.91"/><stop offset="0.35" stop-color="#b9811d" stop-opacity="0.9"/><stop offset="0.4" stop-color="#c08c27" stop-opacity="0.92"/><stop offset="0.47" stop-color="#d2a945" stop-opacity="0.95"/><stop offset="0.57" stop-color="#f0d673" stop-opacity="0.98"/><stop offset="0.62" stop-color="#ffec89"/><stop offset="0.68" stop-color="#ffea76"/><stop offset="0.73" stop-color="#ffe864"/><stop offset="0.79" stop-color="#f2d356"/><stop offset="0.93" stop-color="#ce9f32"/><stop offset="1" stop-color="#bb841e"/></linearGradient><linearGradient id="Degradado_sin_nombre_3-2" x1="86.66" y1="453.22" x2="123.32" y2="453.22" xlink:href="#Degradado_sin_nombre_3"/><linearGradient id="Degradado_sin_nombre_3-3" x1="135.08" y1="454.17" x2="256.35" y2="454.17" xlink:href="#Degradado_sin_nombre_3"/><linearGradient id="Degradado_sin_nombre_15" x1="107.66" y1="525.24" x2="303.09" y2="525.24" gradientTransform="matrix(1, 0, 0, -1, 0, 629.64)" gradientUnits="userSpaceOnUse"><stop offset="0" stop-color="#b47a1a"/><stop offset="0.03" stop-color="#bb831f"/><stop offset="0.08" stop-color="#cc9d2e"/><stop offset="0.14" stop-color="#e9c645"/><stop offset="0.18" stop-color="#ffe55a"/><stop offset="0.21" stop-color="#f8db54"/><stop offset="0.27" stop-color="#e5bf43"/><stop offset="0.33" stop-color="#c49128"/><stop offset="0.35" stop-color="#b9811d"/><stop offset="0.4" stop-color="#c08c27"/><stop offset="0.47" stop-color="#d2a945"/><stop offset="0.57" stop-color="#f0d673"/><stop offset="0.62" stop-color="#ffec89"/><stop offset="0.68" stop-color="#ffea76"/><stop offset="0.73" stop-color="#ffe864"/><stop offset="0.79" stop-color="#f2d356"/><stop offset="0.93" stop-color="#ce9f32"/><stop offset="1" stop-color="#bb841e"/></linearGradient><linearGradient id="Degradado_sin_nombre_15-2" x1="147.61" y1="583.89" x2="167.2" y2="583.89" xlink:href="#Degradado_sin_nombre_15"/><linearGradient id="Degradado_sin_nombre_15-3" x1="75.96" y1="334.01" x2="100.97" y2="334.01" xlink:href="#Degradado_sin_nombre_15"/><linearGradient id="Degradado_sin_nombre_15-4" x1="104.96" y1="334.01" x2="127.39" y2="334.01" xlink:href="#Degradado_sin_nombre_15"/><linearGradient id="Degradado_sin_nombre_15-5" x1="129.94" y1="333.98" x2="150.05" y2="333.98" xlink:href="#Degradado_sin_nombre_15"/><linearGradient id="Degradado_sin_nombre_15-6" x1="156.33" y1="333.99" x2="160.22" y2="333.99" xlink:href="#Degradado_sin_nombre_15"/><linearGradient id="Degradado_sin_nombre_15-7" x1="165.93" y1="333.99" x2="185.73" y2="333.99" xlink:href="#Degradado_sin_nombre_15"/><linearGradient id="Degradado_sin_nombre_15-8" x1="188.29" y1="334.01" x2="210.72" y2="334.01" xlink:href="#Degradado_sin_nombre_15"/><linearGradient id="Degradado_sin_nombre_15-9" x1="214.6" y1="333.99" x2="232.97" y2="333.99" xlink:href="#Degradado_sin_nombre_15"/><linearGradient id="Degradado_sin_nombre_15-10" x1="235.5" y1="333.99" x2="255.19" y2="333.99" xlink:href="#Degradado_sin_nombre_15"/><linearGradient id="Degradado_sin_nombre_15-11" x1="256.5" y1="333.99" x2="275.91" y2="333.99" xlink:href="#Degradado_sin_nombre_15"/><linearGradient id="Degradado_sin_nombre_15-12" x1="105.53" y1="401.38" x2="108.86" y2="401.38" xlink:href="#Degradado_sin_nombre_15"/></defs><ellipse class="cls-1" cx="180.34" cy="181.49" rx="180.34" ry="181.49"/><ellipse class="cls-2" cx="180.34" cy="181.49" rx="162.2" ry="164.52"/><path class="cls-3" d="M123.32,80.54H101.43L86.66,272.3h26.1l5.65-82.23c1.89-28.74,3.46-60.89,4.09-84.79h.64c0,.22.12.45.18.67Z"/><path class="cls-4" d="M243.16,79.59h-34.9l-18.54,45.59-39,103.1c-.87,2.92-1.71,5.81-2.5,8.65h-.77l-12.36,32.66.23.62h20.75l37.42-93C204.17,150.7,213,126.8,220.2,104.33h.94c-.31,23.9,1.58,56.05,3.14,82.8l5.35,84.21h26.72Z"/><path class="cls-5" d="M222.85,48.83A161.44,161.44,0,0,0,175,41.15V52.37a130.17,130.17,0,0,1,44.74,6.2c43.71,13.75,72.82,45.5,64.86,70.76S234.66,164,191,150.22C148,136.71,119.18,105.85,125.71,80.8H107.86c-3.14,29.36,30.79,63.67,80,79.16,53,16.67,104,5.31,113.62-25.33S275.86,65.5,222.85,48.83Z"/><polygon class="cls-6" points="165.07 53.8 158.58 51.46 152.97 55.49 153.17 48.59 147.61 44.5 154.24 42.57 156.41 36.01 160.29 41.72 167.2 41.76 162.97 47.21 165.07 53.8"/><path class="cls-7" d="M97.17,298.15c0-6.34.1-12.71.21-16.3h-.1c-1.3,5.89-4.51,20-7.35,30.8H86.19c-2.13-9.35-5.49-24.58-6.79-30.87h-.14c.21,4,.37,11.45.37,17.28v13.57H76v-34h5.79c2.87,10.68,5.64,23.66,6.49,28.09h.05c.67-3.68,4.12-17.81,6.95-28.09H101v34H97.16V298.15Z"/><path class="cls-8" d="M111.42,301.85l-2.57,10.8H105l8.57-34h5l8.82,34h-4.14l-2.61-10.8Zm8.43-3.31c-2.06-8.36-3.39-13.68-3.86-16.39h-.13c-.48,3-1.93,9.08-3.68,16.39Z"/><path class="cls-9" d="M150,312.66H147a27.77,27.77,0,0,1-.25-3.68c-1.16,2.37-2.93,4.18-7.09,4.18-7.68,0-9.69-7.6-9.69-17.47,0-11.71,3.75-17.54,10.94-17.54,8.5,0,9.05,7.24,9.17,9.28h-3.89c-.1-1.21-.38-6-5.38-6S134,287.07,134,295.62s1.32,14.3,6.31,14.3c4.78,0,5.88-3.84,5.88-11v-1.67h-6.15V294h10v18.65Z"/><path class="cls-10" d="M160.22,278.63v34h-3.89v-34Z"/><path class="cls-11" d="M185.73,303.23c-.16,2-1.06,9.92-9.65,9.92-9.43,0-10.15-9.57-10.15-17.76,0-9.9,2.73-17.25,10.58-17.25,8.54,0,9,7.68,9.1,9.76h-3.92c-.07-1.15-.28-6.44-5.26-6.44-5.59,0-6.45,7.32-6.45,13.94,0,7.19.83,14.45,6.18,14.45,4.73,0,5.45-4.91,5.6-6.63h4Z"/><path class="cls-12" d="M194.75,301.85l-2.57,10.8h-3.89l8.56-34h5.05l8.82,34h-4.14L204,301.85Zm8.42-3.31c-2.06-8.36-3.4-13.68-3.87-16.39h-.12c-.49,3-1.93,9.08-3.68,16.39Z"/><path class="cls-13" d="M218.48,297v15.67H214.6v-34h9.25c6,0,9.07,3.24,9.07,8.78,0,5.08-2.6,7.26-4.75,8,3.29,1.13,4.3,3.91,4.3,8.68v1.35a35.38,35.38,0,0,0,.5,7.26h-3.86c-.49-1.55-.53-4.58-.53-7.34v-1.16c0-4.85-1-7.17-5.81-7.17Zm0-3.17H223c4.31,0,5.94-2.35,5.94-6.3,0-3.42-1.64-5.72-5.56-5.72h-4.91Z"/><path class="cls-14" d="M243.4,282h-7.9v-3.34h19.69V282H247.3v30.69h-3.89V282Z"/><path class="cls-15" d="M260.42,303.71c.28,3.5,2,6.29,5.92,6.29,3.72,0,5.59-1.95,5.59-5.87,0-3.58-1.51-5.49-6.33-7.72-5.56-2.55-8-4.9-8-9.82,0-4.67,3.11-8.42,8.89-8.42,6.84,0,8.69,4.71,8.8,8.7h-3.83c-.17-1.64-.7-5.57-5.11-5.57-3.4,0-4.86,2.24-4.86,5,0,3.26,1.52,4.8,6,6.83,6.19,2.84,8.46,5.67,8.46,10.74,0,5.38-3.16,9.3-9.69,9.3-7.11,0-9.44-4.46-9.72-9.42Z"/><path class="cls-16" d="M107.19,230a1.72,1.72,0,0,0,0-3.44,1.72,1.72,0,0,0,0,3.44Z"/></svg>