<svg id="Capa_1" data-name="Capa 1" xmlns="http://www.w3.org/2000/svg" viewBox="0 0 1280 800"><defs><style>.cls-1{fill:#fff;}.cls-2{fill:#e8b4e3;}</style></defs><circle class="cls-1" cx="809.19" cy="373.18" r="192.81"/><path class="cls-2" d="M884.66,410.49h0a12.08,12.08,0,0,1-12.08-12.08V348a12.08,12.08,0,0,1,12.08-12.09h0A12.08,12.08,0,0,1,896.74,348v50.46A12.07,12.07,0,0,1,884.66,410.49Z"/><path class="cls-2" d="M743.38,432.17h0a12.08,12.08,0,0,0,12.08-12.08V326.27a12.08,12.08,0,0,0-12.08-12.08h0a12.08,12.08,0,0,0-12.08,12.08v93.82A12.08,12.08,0,0,0,743.38,432.17Z"/><rect class="cls-2" x="680.6" y="348.08" width="24.16" height="50.19" rx="1.47"/><path class="cls-2" d="M836.36,272.89H832.6a10.2,10.2,0,0,0-10.2,10.2v19.57a9.47,9.47,0,0,1-9.47,9.47h0a9.47,9.47,0,0,1-9.47-9.47V244.33A12.26,12.26,0,0,0,791.7,232a12.08,12.08,0,0,0-12.41,12.07V502a12.26,12.26,0,0,0,11.77,12.35,12.07,12.07,0,0,0,12.4-12.07V443.7a9.47,9.47,0,0,1,9.47-9.47h0a9.47,9.47,0,0,1,9.47,9.47v19.57a10.2,10.2,0,0,0,10.2,10.2h3.76a10.2,10.2,0,0,0,10.2-10.2V283.09A10.2,10.2,0,0,0,836.36,272.89ZM823.83,405.13a8.38,8.38,0,0,1-8.38,8.37h0a8.37,8.37,0,0,1-8.37-8.37V338.28a8.38,8.38,0,0,1,8.37-8.38h0a8.38,8.38,0,0,1,8.38,8.38Z"/><circle class="cls-2" cx="926.46" cy="373.18" r="11.32" transform="translate(-72.29 382.95) rotate(-22.5)"/></svg>