<svg xmlns="http://www.w3.org/2000/svg" viewBox="0 0 48 47"><defs><style>.cls-1{fill:#fff;}.cls-2{fill:#e8b4e3;}</style></defs><g id="Capa_2" data-name="Capa 2"><circle class="cls-1" cx="24" cy="23.5" r="23.5"/><path class="cls-2" d="M33.2,28.05h0a1.47,1.47,0,0,1-1.47-1.47V20.42A1.47,1.47,0,0,1,33.2,19h0a1.47,1.47,0,0,1,1.47,1.47v6.16A1.47,1.47,0,0,1,33.2,28.05Z"/><path class="cls-2" d="M16,30.69h0a1.47,1.47,0,0,0,1.47-1.47V17.78A1.47,1.47,0,0,0,16,16.31h0a1.47,1.47,0,0,0-1.47,1.47V29.22A1.47,1.47,0,0,0,16,30.69Z"/><rect class="cls-2" x="8.33" y="20.44" width="2.95" height="6.12" rx="1.47"/><path class="cls-2" d="M27.31,11.28h-.46a1.24,1.24,0,0,0-1.24,1.24v2.39a1.16,1.16,0,0,1-1.15,1.15h0a1.16,1.16,0,0,1-1.16-1.15V7.8a1.49,1.49,0,0,0-1.43-1.51,1.48,1.48,0,0,0-1.51,1.47V39.2a1.49,1.49,0,0,0,1.43,1.51,1.48,1.48,0,0,0,1.51-1.47V32.09a1.16,1.16,0,0,1,1.16-1.15h0a1.16,1.16,0,0,1,1.15,1.15v2.39a1.24,1.24,0,0,0,1.24,1.24h.46a1.24,1.24,0,0,0,1.25-1.24v-22A1.24,1.24,0,0,0,27.31,11.28ZM25.78,27.39a1,1,0,0,1-1,1h0a1,1,0,0,1-1-1V19.25a1,1,0,0,1,1-1h0a1,1,0,0,1,1,1Z"/><circle class="cls-2" cx="38.29" cy="23.5" r="1.38"/></g></svg>